<?xml version="1.0" encoding="utf-8"?>
<!-- Generator: Adobe Illustrator 17.1.0, SVG Export Plug-In . SVG Version: 6.00 Build 0)  -->
<!DOCTYPE svg PUBLIC "-//W3C//DTD SVG 1.1//EN" "http://www.w3.org/Graphics/SVG/1.1/DTD/svg11.dtd">
<svg version="1.1" id="Layer_1" xmlns="http://www.w3.org/2000/svg" xmlns:xlink="http://www.w3.org/1999/xlink" x="0px" y="0px"
	 width="318px" height="500px" viewBox="0 0 318 500" enable-background="new 0 0 318 500" xml:space="preserve">
<circle fill="#F2F2F2" cx="20" cy="245.5" r="17.5"/>
<polygon fill="#0F86B2" points="6.6,322.3 0.1,329.3 13.1,329.3 "/>
<polygon fill="#818185" points="7.2,386.5 0.2,380 0.2,393 "/>
<polygon fill="#92A3B3" points="4,488.5 0,484 0,493 "/>
<polygon fill="#818185" points="54.1,473.6 47.1,467.2 47.1,480.2 "/>
<polygon fill="#818185" points="6.6,473.7 13.6,480.2 13.6,467.2 "/>
<polygon fill="#818185" points="26.8,390 33.2,383 20.2,383 "/>
<polygon fill="#B8B8B8" points="6.6,341.3 0.1,348.3 13.1,348.3 "/>
<rect x="47.2" y="367" fill="#9E9E9E" width="2" height="2"/>
<rect x="50.2" y="370" fill="#9E9E9E" width="2" height="2"/>
<rect x="56.2" y="370" fill="#9E9E9E" width="2" height="2"/>
<rect x="62.2" y="370" fill="#9E9E9E" width="2" height="2"/>
<rect x="68.2" y="370" fill="#9E9E9E" width="2" height="2"/>
<rect x="53.3" y="367" fill="#9E9E9E" width="2" height="2"/>
<rect x="59.3" y="367" fill="#9E9E9E" width="2" height="2"/>
<rect x="65.3" y="367" fill="#9E9E9E" width="2" height="2"/>
<rect x="71.3" y="367" fill="#9E9E9E" width="2" height="2"/>
<g>
	<rect x="60.3" y="340" fill="#B8B8B8" width="1.9" height="14"/>
	<rect x="63.1" y="341" fill="#CCCCCC" width="10.1" height="8"/>
</g>
<g>
	<rect x="60.3" y="320.1" fill="#D35F5F" width="1.9" height="14"/>
	<rect x="63.1" y="321.1" fill="#F89393" width="10.1" height="8"/>
</g>
<g>
	<rect x="80.3" y="320.1" fill="#FE6502" width="14" height="14"/>
	<path fill="#FFFFFF" d="M83.5,329.5c-0.8,0-1.4,0.6-1.4,1.4s0.6,1.4,1.4,1.4s1.4-0.6,1.4-1.4C84.8,330.2,84.3,329.5,83.5,329.5z
		 M82.1,325.5v2c1.3,0,2.5,0.5,3.4,1.4s1.4,2.1,1.4,3.4h2C89,328.5,85.8,325.5,82.1,325.5z M82.1,321.9v2c4.6,0,8.4,3.8,8.4,8.4h2
		C92.5,326.6,87.8,321.9,82.1,321.9z"/>
</g>
<g>
	<polygon fill="#7A7A7A" points="22.7,347.1 21.8,350.3 25.1,349.6 	"/>
	
		<rect x="24.6" y="343.3" transform="matrix(0.7071 0.7071 -0.7071 0.7071 252.3026 82.6616)" fill="#7A7A7A" width="3.5" height="5.1"/>
	<path fill="#7A7A7A" d="M29.1,341.3c-0.4,0-0.8,0.1-1.1,0.4l-0.7,0.7l2.5,2.5l0.7-0.7c0.2-0.3,0.4-0.7,0.4-1.1
		C30.8,342.1,30.1,341.3,29.1,341.3z"/>
</g>
<g>
	<circle fill="#C03433" cx="107" cy="451.8" r="6.5"/>
	<path fill="#FFFFFF" d="M110.2,453.7L110.2,453.7l-1.9-1.9l1.9-1.9l0,0c0,0,0,0,0-0.1s0-0.2,0-0.2l-0.9-0.9c-0.1-0.1-0.1-0.1-0.2,0
		H109l0,0l-1.9,1.9l-1.9-1.9l0,0c0,0,0,0-0.1,0s-0.2,0-0.2,0l-0.9,0.9c-0.1,0.1-0.1,0.1,0,0.2v0.1l0,0l1.9,1.9l-1.9,1.9l0,0
		c0,0,0,0,0,0.1s0,0.2,0,0.2l0.9,0.9c0.1,0.1,0.1,0.1,0.2,0h0.1l0,0l1.9-1.9l1.9,1.9l0,0c0,0,0,0,0.1,0s0.2,0,0.2,0l0.9-0.9
		C110.2,454,110.2,453.9,110.2,453.7C110.2,453.8,110.2,453.8,110.2,453.7z"/>
</g>
<g>
	<circle fill="#C03433" cx="47.2" cy="346.9" r="6.5"/>
	<path fill="#FFFFFF" d="M50.3,348.8L50.3,348.8l-1.9-1.9l1.9-1.9l0,0c0,0,0,0,0-0.1s0-0.2,0-0.2l-0.9-0.9c-0.1-0.1-0.1-0.1-0.2,0
		h-0.1l0,0l-1.9,1.9l-1.9-1.9l0,0c0,0,0,0-0.1,0s-0.2,0-0.2,0l-0.9,0.9c-0.1,0.1-0.1,0.1,0,0.2v0.1l0,0l1.9,1.9l-1.9,1.9l0,0
		c0,0,0,0,0,0.1s0,0.2,0,0.2L45,350c0.1,0.1,0.1,0.1,0.2,0h0.1l0,0l1.9-1.9l1.9,1.9l0,0c0,0,0,0,0.1,0s0.2,0,0.2,0l0.9-0.9
		C50.3,349,50.3,348.9,50.3,348.8C50.3,348.9,50.3,348.8,50.3,348.8z"/>
</g>
<g>
	<circle fill="#CCCCCC" cx="47.2" cy="326.1" r="6.5"/>
	<path fill="#FFFFFF" d="M50.3,328.1L50.3,328.1l-1.9-1.9l1.9-1.9l0,0c0,0,0,0,0-0.1s0-0.2,0-0.2l-0.9-0.9c-0.1-0.1-0.1-0.1-0.2,0
		h-0.1l0,0l-2,1.8l-1.9-1.9l0,0c0,0,0,0-0.1,0s-0.2,0-0.2,0l-0.9,0.9c-0.1,0.1-0.1,0.1,0,0.2v0.1l0,0l1.9,1.9L44,328l0,0
		c0,0,0,0,0,0.1s0,0.2,0,0.2l0.9,0.9c0.1,0.1,0.1,0.1,0.2,0h0.1l0,0l1.9-1.9l1.9,1.9l0,0c0,0,0,0,0.1,0s0.2,0,0.2,0l0.9-0.9
		C50.3,328.3,50.3,328.2,50.3,328.1L50.3,328.1z"/>
</g>
<g>
	<circle fill="#F2F2F2" cx="20" cy="193.5" r="17.5"/>
	<g>
		<g>
			<polygon fill="#818185" points="27.5,198.6 20,187 12.6,198.6 			"/>
		</g>
	</g>
</g>
<g>
	<circle fill="#316EB6" cx="60" cy="193.5" r="17.5"/>
	<g>
		<g>
			<polygon fill="#FFFFFF" points="67.5,198.6 60,187 52.6,198.6 			"/>
		</g>
	</g>
</g>
<g>
	<circle fill="#316EB6" cx="60" cy="245.5" r="17.5"/>
	<g>
		<g>
			<polygon fill="#FFFFFF" points="52.5,240.5 60,252.1 67.3,240.5 			"/>
		</g>
	</g>
</g>
<g>
	<circle fill="#CCF1AF" cx="60" cy="290.5" r="17.5"/>
</g>
<g>
	<circle fill="#F2F2F2" cx="22" cy="290.5" r="17.5"/>
</g>
<g>
	<circle fill="#F2F2F2" cx="20" cy="245.5" r="17.5"/>
	<g>
		<g>
			<polygon fill="#818185" points="12.5,240.5 20,252.1 27.3,240.5 			"/>
		</g>
	</g>
</g>
<g>
	<g>
		<path fill="#7CA75A" d="M68.3,286.9l-10,10c-0.3,0.3-0.7,0.3-0.9,0l-5.7-5.8c-0.3-0.3-0.3-0.7,0-0.9l1.4-1.4
			c0.3-0.3,0.7-0.3,0.9,0l3.9,3.9l8.2-8.2c0.3-0.3,0.7-0.3,0.9,0l1.4,1.4C68.7,286.2,68.7,286.6,68.3,286.9z"/>
	</g>
</g>
<g>
	<path fill="#818185" d="M31.3,286.9l-10,10c-0.3,0.3-0.7,0.3-0.9,0l-5.7-5.8c-0.3-0.3-0.3-0.7,0-0.9l1.4-1.4c0.3-0.3,0.7-0.3,0.9,0
		l3.9,3.9l8.2-8.2c0.3-0.3,0.7-0.3,0.9,0l1.4,1.4C31.7,286.2,31.7,286.6,31.3,286.9z"/>
</g>
<g>
	<polygon fill="#818185" points="25,134.7 31,128.8 22.7,127.6 19,120 15.2,127.6 7.1,128.8 13.1,134.7 11.7,143 19,139.1 26.3,143 
			"/>
</g>
<g>
	<polygon fill="#FFD83D" points="59,138.5 52.2,142.1 53.5,134.5 48.1,129.1 55.7,128 59,121.1 62.3,128 69.8,129.1 64.5,134.5 
		65.7,142.1 	"/>
	<g>
		<path fill="#FFD83D" d="M59,122.3l2.8,5.7l0.2,0.5l0.5,0.1l6.3,0.9l-4.6,4.5l-0.4,0.4l0.1,0.5l1.1,6.3l-5.6-3l-0.5-0.2l-0.5,0.2
			l-5.6,3l1.1-6.3l0.1-0.5l-0.4-0.4l-4.6-4.5l6.3-0.9l0.5-0.1L56,128L59,122.3 M59,120l-3.7,7.6l-8.3,1.2l6,5.9l-1.4,8.3l7.4-3.9
			l7.4,3.9l-1.4-8.3l6-5.9l-8.3-1.2L59,120L59,120z"/>
	</g>
</g>
<g>
	<g>
		<path fill="#44B449" d="M33.1,323.6l-7.2,7.2c-0.2,0.2-0.5,0.2-0.7,0l-4.1-4.2c-0.2-0.2-0.2-0.5,0-0.7l1-1c0.2-0.2,0.5-0.2,0.7,0
			l2.8,2.8l5.9-5.9c0.2-0.2,0.5-0.2,0.7,0l1,1C33.3,323.1,33.3,323.4,33.1,323.6z"/>
	</g>
</g>
<circle fill="#CC9966" cx="65.1" cy="405" r="3"/>
<circle fill="#C5C5C5" cx="85.1" cy="405" r="3"/>
<circle fill="#FFCC00" cx="105.1" cy="405" r="3"/>
<g>
	<path fill="#C5C5C5" d="M0.2,400v31h3.4c0.3-5.5,3.7-10.1,8.3-11.8V418c-1.8-1.2-3-3.3-3-5.6c0-3.7,3-6.7,6.8-6.7s6.8,3,6.8,6.7
		c0,2.3-1.2,4.4-3,5.6v1.2c4.6,1.7,8,6.3,8.3,11.8h3.4v-31H0.2z"/>
	<path fill="#FFFFFF" d="M3.7,431H28c-0.3-5.5-3.7-10.1-8.3-11.8V418c1.8-1.2,3-3.3,3-5.6c0-3.7-3-6.7-6.8-6.7s-6.8,3-6.8,6.7
		c0,2.3,1.2,4.4,3,5.6v1.2C7.6,420.9,4.1,425.5,3.7,431z"/>
</g>
<g>
	<rect x="20" y="70" fill="#3A589A" width="16" height="16"/>
	<path fill="#FFFFFF" d="M30.3,85h-2.1v-5.5h-1.4v-1.9h1.4v-1.1c0-1.6,0.4-2.5,2.3-2.5H32v1.9h-1c-0.7,0-0.7,0.3-0.7,0.8v1H32
		l-0.2,1.9h-1.5V85L30.3,85z"/>
</g>
<g>
	<rect x="40" y="70" fill="#DD4B39" width="16" height="16"/>
	<path fill="#FFFFFF" d="M48.4,73.7c0,0-2,0-2.7,0c-1.2,0-2.3,0.9-2.3,2s0.8,1.9,2,1.9c0.1,0,0.2,0,0.2,0c-0.1,0.2-0.1,0.3-0.1,0.5
		c0,0.3,0.2,0.5,0.4,0.7c-0.2,0-0.3,0-0.5,0c-1.5,0-2.6,0.9-2.6,1.9s1.3,1.6,2.7,1.6c1.7,0,2.6-1,2.6-1.9c0-0.8-0.2-1.2-0.9-1.7
		c-0.2-0.2-0.7-0.6-0.7-0.8c0-0.3,0.1-0.4,0.5-0.8c0.4-0.3,0.8-0.8,0.8-1.4c0-0.7-0.3-1.3-0.9-1.5h0.8L48.4,73.7L48.4,73.7z
		 M47.5,80.2c0,0.1,0,0.2,0,0.3c0,0.8-0.5,1.4-1.9,1.4c-1,0-1.8-0.6-1.8-1.4s0.9-1.4,1.9-1.4c0.2,0,0.5,0,0.7,0.1
		C47,79.6,47.4,79.8,47.5,80.2L47.5,80.2z M45.9,77.3c-0.7,0-1.3-0.8-1.5-1.7s0.3-1.6,1-1.6s1.3,0.7,1.5,1.7
		C47.1,76.7,46.6,77.3,45.9,77.3z M51.2,75.6v-1.9h-0.6v1.9h-1.9v0.6h1.9v1.9h0.6v-1.9h1.9v-0.6H51.2z"/>
</g>
<g>
	<rect x="60" y="70" fill="#28AAE1" width="16" height="16"/>
	<path fill="#FFFFFF" d="M71.9,75.5c-0.3,0.1-0.6,0.2-0.9,0.3c0.3-0.2,0.6-0.5,0.7-0.9c-0.3,0.2-0.7,0.3-1,0.4
		c-0.3-0.3-0.7-0.5-1.2-0.5c-0.9,0-1.6,0.7-1.6,1.6c0,0.1,0,0.3,0,0.4c-1.3-0.1-2.5-0.7-3.3-1.7c-0.1,0.2-0.2,0.5-0.2,0.8
		c0,0.6,0.3,1.1,0.7,1.4c-0.3,0-0.5-0.1-0.7-0.2l0,0c0,0.8,0.6,1.4,1.3,1.6c-0.1,0-0.3,0.1-0.4,0.1s-0.2,0-0.3,0
		c0.2,0.6,0.8,1.1,1.5,1.1c-0.6,0.4-1.3,0.7-2,0.7c-0.1,0-0.3,0-0.4,0c0.7,0.5,1.6,0.7,2.5,0.7c3,0,4.6-2.5,4.6-4.6
		c0-0.1,0-0.1,0-0.2C71.4,76.2,71.7,75.9,71.9,75.5L71.9,75.5z"/>
</g>
<g>
	<rect y="70" fill="#818185" width="16" height="16"/>
	<path fill="#FFFFFF" d="M11.7,74.3H4.3c-0.5,0-0.9,0.4-0.9,0.9v5.5c0,0.5,0.4,0.9,0.9,0.9h7.4c0.5,0,0.9-0.4,0.9-0.9v-5.5
		C12.6,74.7,12.2,74.3,11.7,74.3z M11.7,76.2L8,78.5l-3.7-2.3v-0.9L8,77.5l3.7-2.3V76.2z"/>
</g>
</svg>
